<?xml version="1.0" encoding="UTF-8" standalone="no"?>
<!DOCTYPE svg PUBLIC "-//W3C//DTD SVG 1.1//EN" "http://www.w3.org/Graphics/SVG/1.1/DTD/svg11.dtd">
<svg width="100%" height="100%" viewBox="0 0 1455 140" version="1.1" xmlns="http://www.w3.org/2000/svg" xmlns:xlink="http://www.w3.org/1999/xlink" xml:space="preserve" xmlns:serif="http://www.serif.com/" style="fill-rule:evenodd;clip-rule:evenodd;stroke-linejoin:round;stroke-miterlimit:2;">
    <g transform="matrix(1,0,0,1,408,-158)">
        <g id="svg_1" transform="matrix(1,0,0,1,-100,264)">
            <path d="M-261.016,-32.617C-261.016,-29.557 -261.252,-26.628 -261.724,-23.828C-262.196,-21.029 -262.952,-18.424 -263.994,-16.016C-265.036,-13.607 -266.387,-11.418 -268.047,-9.448C-269.707,-7.479 -271.742,-5.794 -274.15,-4.395C-276.559,-2.995 -279.359,-1.912 -282.549,-1.147C-285.739,-0.382 -289.368,0 -293.438,0L-307.109,0L-307.109,-63.818L-290.654,-63.818C-280.693,-63.818 -273.263,-61.255 -268.364,-56.128C-263.465,-51.001 -261.016,-43.164 -261.016,-32.617ZM-270.146,-31.982C-270.146,-36.507 -270.57,-40.332 -271.416,-43.457C-272.262,-46.582 -273.548,-49.105 -275.273,-51.025C-276.999,-52.946 -279.163,-54.338 -281.768,-55.2C-284.372,-56.063 -287.432,-56.494 -290.947,-56.494L-298.418,-56.494L-298.418,-7.52L-291.924,-7.52C-277.406,-7.52 -270.146,-15.674 -270.146,-31.982Z" style="fill:rgb(242,242,242);fill-rule:nonzero;"/>
            <path d="M-171.357,0L-207.637,0L-207.637,-63.818L-171.357,-63.818L-171.357,-56.494L-198.945,-56.494L-198.945,-36.719L-172.432,-36.719L-172.432,-29.395L-198.945,-29.395L-198.945,-7.422L-171.357,-7.422L-171.357,0Z" style="fill:rgb(242,242,242);fill-rule:nonzero;"/>
            <path d="M-73.789,-17.285C-73.789,-14.258 -74.408,-11.605 -75.645,-9.326C-76.882,-7.048 -78.607,-5.151 -80.82,-3.638C-83.034,-2.124 -85.695,-0.993 -88.804,-0.244C-91.912,0.505 -95.339,0.879 -99.082,0.879C-100.775,0.879 -102.459,0.814 -104.136,0.684C-105.812,0.553 -107.424,0.391 -108.97,0.195C-110.516,-0 -111.973,-0.228 -113.34,-0.488C-114.707,-0.749 -115.944,-1.025 -117.051,-1.318L-117.051,-9.717C-114.609,-8.805 -111.867,-8.089 -108.823,-7.568C-105.78,-7.048 -102.321,-6.787 -98.447,-6.787C-95.648,-6.787 -93.263,-7.007 -91.294,-7.446C-89.325,-7.886 -87.713,-8.537 -86.46,-9.399C-85.207,-10.262 -84.295,-11.312 -83.726,-12.549C-83.156,-13.786 -82.871,-15.202 -82.871,-16.797C-82.871,-18.522 -83.351,-19.995 -84.312,-21.216C-85.272,-22.437 -86.533,-23.527 -88.096,-24.487C-89.658,-25.448 -91.44,-26.326 -93.442,-27.124C-95.444,-27.922 -97.487,-28.743 -99.57,-29.59C-101.654,-30.436 -103.696,-31.356 -105.698,-32.349C-107.7,-33.341 -109.482,-34.513 -111.045,-35.864C-112.607,-37.215 -113.869,-38.802 -114.829,-40.625C-115.789,-42.448 -116.27,-44.613 -116.27,-47.119C-116.27,-49.3 -115.814,-51.449 -114.902,-53.564C-113.991,-55.68 -112.575,-57.56 -110.654,-59.204C-108.734,-60.848 -106.268,-62.174 -103.257,-63.184C-100.246,-64.193 -96.657,-64.697 -92.49,-64.697C-91.416,-64.697 -90.252,-64.648 -88.999,-64.551C-87.746,-64.453 -86.476,-64.315 -85.19,-64.136C-83.905,-63.957 -82.635,-63.753 -81.382,-63.525C-80.129,-63.298 -78.965,-63.053 -77.891,-62.793L-77.891,-54.98C-80.397,-55.697 -82.904,-56.242 -85.41,-56.616C-87.917,-56.991 -90.342,-57.178 -92.686,-57.178C-97.666,-57.178 -101.328,-56.348 -103.672,-54.688C-106.016,-53.027 -107.188,-50.798 -107.188,-47.998C-107.188,-46.273 -106.707,-44.792 -105.747,-43.555C-104.787,-42.318 -103.525,-41.211 -101.963,-40.234C-100.4,-39.258 -98.618,-38.371 -96.616,-37.573C-94.614,-36.776 -92.572,-35.954 -90.488,-35.107C-88.405,-34.261 -86.362,-33.333 -84.36,-32.324C-82.358,-31.315 -80.576,-30.119 -79.014,-28.735C-77.451,-27.352 -76.19,-25.732 -75.229,-23.877C-74.269,-22.021 -73.789,-19.824 -73.789,-17.285Z" style="fill:rgb(242,242,242);fill-rule:nonzero;"/>
            <path d="M23.291,-56.396L4.395,-56.396L4.395,0L-4.395,0L-4.395,-56.396L-23.291,-56.396L-23.291,-63.818L23.291,-63.818L23.291,-56.396Z" style="fill:rgb(242,242,242);fill-rule:nonzero;"/>
            <path d="M90.586,-56.494L75.889,-56.494L75.889,-63.818L114.072,-63.818L114.072,-56.494L99.375,-56.494L99.375,-7.422L114.072,-7.422L114.072,0L75.889,0L75.889,-7.422L90.586,-7.422L90.586,-56.494Z" style="fill:rgb(242,242,242);fill-rule:nonzero;"/>
            <path d="M211.689,0L200.361,0L181.758,-39.795L176.387,-52.588L176.387,0L168.281,0L168.281,-63.818L179.463,-63.818L197.188,-26.123L203.584,-11.523L203.584,-63.818L211.689,-63.818L211.689,0Z" style="fill:rgb(242,242,242);fill-rule:nonzero;"/>
            <path d="M312.432,-63.818L289.336,-22.803L289.336,0L280.547,0L280.547,-22.998L257.451,-63.818L267.949,-63.818L280.645,-40.479L285.332,-31.104L289.629,-39.6L302.471,-63.818L312.432,-63.818Z" style="fill:rgb(242,242,242);fill-rule:nonzero;"/>
        </g>
        <g id="svg_3" transform="matrix(1,0,0,1,722,264)">
            <path d="M-263.848,-2.393C-268.958,-0.277 -274.313,0.781 -279.912,0.781C-288.929,0.781 -295.854,-1.912 -300.688,-7.3C-305.522,-12.687 -307.939,-20.654 -307.939,-31.201C-307.939,-36.312 -307.272,-40.934 -305.938,-45.068C-304.603,-49.202 -302.699,-52.71 -300.225,-55.591C-297.751,-58.472 -294.756,-60.693 -291.24,-62.256C-287.725,-63.818 -283.786,-64.6 -279.424,-64.6C-276.462,-64.6 -273.711,-64.347 -271.172,-63.843C-268.633,-63.338 -266.191,-62.565 -263.848,-61.523L-263.848,-52.979C-266.159,-54.248 -268.551,-55.216 -271.025,-55.884C-273.499,-56.551 -276.201,-56.885 -279.131,-56.885C-282.126,-56.885 -284.836,-56.323 -287.261,-55.2C-289.686,-54.077 -291.745,-52.45 -293.438,-50.317C-295.13,-48.185 -296.432,-45.581 -297.344,-42.505C-298.255,-39.429 -298.711,-35.921 -298.711,-31.982C-298.711,-23.714 -297.035,-17.48 -293.682,-13.281C-290.329,-9.082 -285.413,-6.982 -278.936,-6.982C-276.201,-6.982 -273.581,-7.3 -271.074,-7.935C-268.568,-8.569 -266.159,-9.456 -263.848,-10.596L-263.848,-2.393Z" style="fill:rgb(242,242,242);fill-rule:nonzero;"/>
            <path d="M-165.156,-32.324C-165.156,-26.595 -165.832,-21.647 -167.183,-17.48C-168.534,-13.314 -170.356,-9.871 -172.651,-7.153C-174.946,-4.435 -177.632,-2.417 -180.708,-1.099C-183.784,0.22 -187.031,0.879 -190.449,0.879C-194.551,0.879 -198.123,0.138 -201.167,-1.343C-204.211,-2.824 -206.733,-4.964 -208.735,-7.764C-210.737,-10.563 -212.227,-13.973 -213.203,-17.993C-214.18,-22.013 -214.668,-26.546 -214.668,-31.592C-214.668,-37.256 -214.001,-42.171 -212.666,-46.338C-211.331,-50.505 -209.517,-53.947 -207.222,-56.665C-204.927,-59.383 -202.249,-61.401 -199.189,-62.72C-196.13,-64.038 -192.891,-64.697 -189.473,-64.697C-185.371,-64.697 -181.799,-63.949 -178.755,-62.451C-175.711,-60.954 -173.18,-58.813 -171.162,-56.03C-169.144,-53.247 -167.638,-49.854 -166.646,-45.85C-165.653,-41.846 -165.156,-37.337 -165.156,-32.324ZM-174.189,-31.689C-174.189,-35.433 -174.474,-38.859 -175.044,-41.968C-175.614,-45.076 -176.533,-47.754 -177.803,-50C-179.072,-52.246 -180.708,-53.988 -182.71,-55.225C-184.712,-56.462 -187.129,-57.08 -189.961,-57.08C-192.695,-57.08 -195.047,-56.421 -197.017,-55.103C-198.986,-53.784 -200.605,-51.994 -201.875,-49.731C-203.145,-47.469 -204.089,-44.816 -204.707,-41.772C-205.326,-38.729 -205.635,-35.498 -205.635,-32.08C-205.635,-28.304 -205.342,-24.862 -204.756,-21.753C-204.17,-18.644 -203.25,-15.975 -201.997,-13.745C-200.744,-11.515 -199.124,-9.782 -197.139,-8.545C-195.153,-7.308 -192.76,-6.689 -189.961,-6.689C-187.227,-6.689 -184.867,-7.349 -182.881,-8.667C-180.895,-9.985 -179.259,-11.776 -177.974,-14.038C-176.688,-16.3 -175.736,-18.945 -175.117,-21.973C-174.499,-25 -174.189,-28.239 -174.189,-31.689Z" style="fill:rgb(242,242,242);fill-rule:nonzero;"/>
            <path d="M-69.883,0L-78.379,0L-79.648,-39.795L-80.186,-55.078L-83.164,-46.191L-92.588,-20.801L-98.594,-20.801L-107.578,-45.215L-110.557,-55.078L-110.752,-39.111L-111.875,0L-120.078,0L-116.953,-63.818L-106.65,-63.818L-98.057,-39.795L-95.273,-31.689L-92.588,-39.795L-83.555,-63.818L-72.959,-63.818L-69.883,0Z" style="fill:rgb(242,242,242);fill-rule:nonzero;"/>
            <path d="M22.119,-44.287C22.119,-41.683 21.631,-39.103 20.654,-36.548C19.678,-33.993 18.164,-31.706 16.113,-29.688C14.063,-27.669 11.442,-26.034 8.252,-24.78C5.062,-23.527 1.253,-22.9 -3.174,-22.9L-11.084,-22.9L-11.084,0L-19.775,0L-19.775,-63.818L-1.807,-63.818C1.351,-63.818 4.378,-63.468 7.275,-62.769C10.173,-62.069 12.72,-60.938 14.917,-59.375C17.114,-57.813 18.864,-55.794 20.166,-53.32C21.468,-50.846 22.119,-47.835 22.119,-44.287ZM13.086,-43.896C13.086,-47.998 11.743,-51.139 9.058,-53.32C6.372,-55.501 2.62,-56.592 -2.197,-56.592L-11.084,-56.592L-11.084,-30.322L-2.979,-30.322C2.165,-30.322 6.128,-31.445 8.911,-33.691C11.694,-35.938 13.086,-39.339 13.086,-43.896Z" style="fill:rgb(242,242,242);fill-rule:nonzero;"/>
            <path d="M121.982,0L112.51,0L108.066,-13.916L81.504,-13.916L77.012,0L67.979,0L89.17,-63.818L101.084,-63.818L121.982,0ZM105.576,-21.68L94.785,-55.811L83.994,-21.68L105.576,-21.68Z" style="fill:rgb(242,242,242);fill-rule:nonzero;"/>
            <path d="M213.789,0L203.975,0L194.453,-20.41C193.737,-21.973 193.005,-23.267 192.256,-24.292C191.507,-25.317 190.701,-26.131 189.839,-26.733C188.976,-27.336 188.032,-27.767 187.007,-28.027C185.981,-28.288 184.834,-28.418 183.564,-28.418L179.463,-28.418L179.463,0L170.771,0L170.771,-63.818L187.861,-63.818C191.572,-63.818 194.762,-63.411 197.432,-62.598C200.101,-61.784 202.29,-60.645 203.999,-59.18C205.708,-57.715 206.961,-55.949 207.759,-53.882C208.556,-51.815 208.955,-49.528 208.955,-47.021C208.955,-45.036 208.662,-43.156 208.076,-41.382C207.49,-39.608 206.619,-37.996 205.464,-36.548C204.308,-35.099 202.876,-33.846 201.167,-32.788C199.458,-31.73 197.497,-30.941 195.283,-30.42C197.074,-29.801 198.595,-28.719 199.849,-27.173C201.102,-25.627 202.38,-23.568 203.682,-20.996L213.789,0ZM199.873,-46.289C199.873,-49.707 198.807,-52.262 196.675,-53.955C194.543,-55.648 191.54,-56.494 187.666,-56.494L179.463,-56.494L179.463,-35.4L186.494,-35.4C188.545,-35.4 190.392,-35.636 192.036,-36.108C193.68,-36.58 195.08,-37.28 196.235,-38.208C197.391,-39.136 198.286,-40.275 198.921,-41.626C199.556,-42.977 199.873,-44.531 199.873,-46.289Z" style="fill:rgb(242,242,242);fill-rule:nonzero;"/>
            <path d="M303.545,0L267.266,0L267.266,-63.818L303.545,-63.818L303.545,-56.494L275.957,-56.494L275.957,-36.719L302.471,-36.719L302.471,-29.395L275.957,-29.395L275.957,-7.422L303.545,-7.422L303.545,0Z" style="fill:rgb(242,242,242);fill-rule:nonzero;"/>
        </g>
        <path d="M244.19,170.57C251.03,160.08 262.24,155.37 274.51,160.14L291.42,169.81L292.01,215.69C292.43,224.66 303.35,237.45 315.9,237.33C328.45,237.2 339.85,226.39 340.13,215.64L340.35,170.2L358.02,159.64C370.83,154.31 384.29,162.92 388.5,171.98C392.71,181.04 392.1,195.56 378.96,203.42C365.82,211.28 354.72,221.91 347.74,236.64C340.76,251.38 339.7,265.85 338.73,276.2C337.76,286.55 329.97,296.86 317.12,297.37C304.27,297.88 293.87,289.73 292.67,274.54C291.48,259.35 291.76,254.55 284.11,237.2C276.46,219.85 262.38,208.64 252.28,202.87C242.17,197.1 237.35,181.06 244.19,170.57Z" style="fill:rgb(242,242,242);fill-rule:nonzero;"/>
        <path d="M301.28,183.91L301,213.35C301,218.63 306,227.79 316.28,227.79C326.56,227.79 331.56,220.01 331.56,213.62L331.56,184.18C331.28,177.51 324.89,169.74 315.73,170.01C306.56,170.29 301.29,179.18 301.29,183.9L301.28,183.91Z" style="fill:rgb(242,242,242);fill-rule:nonzero;"/>
    </g>
</svg>
