<svg viewBox="-408 158 1455 140" xmlns="http://www.w3.org/2000/svg">
 <!-- Created with SVG-edit - https://github.com/SVG-Edit/svgedit-->
 <g fill="#f2f2f2">
  <text fill="#f2f2f2" font-family="Monospace" font-size="100" id="svg_1" letter-spacing="40" stroke="#000000" stroke-width="0" text-anchor="middle" transform="matrix(1 0 0 1 0 0)" x="-80" xml:space="preserve" y="264">DESTINY</text>
  <text fill="#f2f2f2" font-family="Monospace" font-size="100" id="svg_3" letter-spacing="40" stroke="#000000" stroke-width="0" text-anchor="middle" x="742" xml:space="preserve" y="264">COMPARE</text>
  <path d="m244.19,170.57c6.84,-10.49 18.05,-15.2 30.32,-10.43l16.91,9.67l0.59,45.88c0.42,8.97 11.34,21.76 23.89,21.64c12.55,-0.13 23.95,-10.94 24.23,-21.69l0.22,-45.44l17.67,-10.56c12.81,-5.33 26.27,3.28 30.48,12.34c4.21,9.06 3.6,23.58 -9.54,31.44c-13.14,7.86 -24.24,18.49 -31.22,33.22c-6.98,14.74 -8.04,29.21 -9.01,39.56c-0.97,10.35 -8.76,20.66 -21.61,21.17c-12.85,0.51 -23.25,-7.64 -24.45,-22.83c-1.19,-15.19 -0.91,-19.99 -8.56,-37.34c-7.65,-17.35 -21.73,-28.56 -31.83,-34.33c-10.11,-5.77 -14.93,-21.81 -8.09,-32.3z"/>
  <path d="m301.28,183.91l-0.28,29.44c0,5.28 5,14.44 15.28,14.44c10.28,0 15.28,-7.78 15.28,-14.17l0,-29.44c-0.28,-6.67 -6.67,-14.44 -15.83,-14.17c-9.17,0.28 -14.44,9.17 -14.44,13.89l-0.01,0.01z"/>
 </g>
</svg>